<svg width="96" height="95" viewBox="0 0 96 95" fill="none" xmlns="http://www.w3.org/2000/svg">
<rect x="0.5" width="95" height="95" rx="4" fill="white"/>
<path d="M30.0491 8H8.5V29.5491H30.0491V8ZM26.597 26.097H11.9521V11.4521H26.597V26.097Z" fill="black"/>
<path d="M65.9492 8V29.5491H87.4983V8H65.9492ZM84.0462 26.097H69.4013V11.4521H84.0462V26.097Z" fill="black"/>
<path d="M8.5 87.0002H30.0491V65.4512H8.5V87.0002ZM11.9521 68.9033H26.597V83.5481H11.9521V68.9033Z" fill="black"/>
<path d="M22.8666 15.1831H15.6836V22.3661H22.8666V15.1831Z" fill="black"/>
<path d="M22.8666 72.6343H15.6836V79.8173H22.8666V72.6343Z" fill="black"/>
<path d="M80.3178 15.1831H73.1348V22.3661H80.3178V15.1831Z" fill="black"/>
<path d="M87.4853 76.2183H83.9004V86.9862H87.4853V76.2183Z" fill="black"/>
<path d="M73.1356 43.915H69.5508V51.0981H73.1356V43.915Z" fill="black"/>
<path d="M76.7196 36.7324V33.1343H73.1348V43.9154H76.7196H80.3178V40.3173H83.9027V36.7324H80.3178H76.7196Z" fill="black"/>
<path d="M58.7685 25.9509H62.3666V15.183H58.7685V8H55.1836V18.7812H58.7685V25.9509Z" fill="black"/>
<path d="M30.0491 51.0847H33.6339V47.4998H30.0491V40.3168H26.4509H19.2812V36.7319H15.683V40.3168H12.0981V43.915H8.5V47.4998H15.683V51.0847H12.0981V54.6828H8.5V58.2677H12.0981V61.8659H15.683H19.2812H22.866V58.2677H19.2812H15.683V54.6828H22.866V51.0847V47.4998V43.915H26.4509V54.6828V58.2677H30.0491V54.6828V51.0847Z" fill="black"/>
<path d="M80.3056 83.4019H76.7207V86.9867H80.3056V83.4019Z" fill="black"/>
<path d="M73.1331 69.0488H69.5483V72.6337H65.9501H62.3652V76.2186V86.9997H65.9501V76.2186H69.5483H73.1331V72.6337V69.0488Z" fill="black"/>
<path d="M69.5508 61.8661H73.1356V65.451H76.7205H80.3187V72.634H83.9035V65.451H87.5017V61.8661V58.268H83.9035V54.6831H80.3187V61.8661H76.7205V58.268H73.1356V54.6831H69.5508V58.268V61.8661Z" fill="black"/>
<path d="M65.9492 69.0487H69.5474V65.4506V61.8657H65.9492V65.4506V69.0487Z" fill="black"/>
<path d="M76.7207 47.4999V51.0848H80.3189H83.9037H87.5019V47.4999V43.915H83.9037H80.3189V47.4999H76.7207Z" fill="black"/>
<path d="M62.3652 61.8661H65.9501V58.268V54.6831H62.3652V58.268V61.8661Z" fill="black"/>
<path d="M69.5341 51.085H65.9492V54.6698H69.5341V51.085Z" fill="black"/>
<path d="M87.4853 33.1343H83.9004V36.7192H87.4853V33.1343Z" fill="black"/>
<path d="M37.2329 72.6342V65.4512H33.6348V76.2191V87.0002H37.2329V76.2191H40.8178V72.6342H37.2329Z" fill="black"/>
<path d="M58.7656 54.6828H62.3505V40.3168H58.7656V36.7319H55.1807V33.147H51.5958H47.9977V29.5622V25.9773H51.5826V22.3924H55.1674V18.8075H51.5826V11.6245H47.9977V22.3924H44.4128V25.9773V29.5622H40.8279V33.147H44.4128V36.7319H47.9977H51.5826V43.9149H47.9977V47.4998H44.4128V40.3168H40.8279V36.7319V33.147H37.2431V36.7319V40.3168V43.9016H40.8279V51.0847H37.2431H33.6582V54.6695V58.2544H37.2431V61.8393H44.4261V65.4241H47.9977V61.8393H51.5826V65.4241H55.1674V54.6563H58.7656V54.6828ZM40.8147 58.2677V54.6828H44.3995V51.0979H47.9977V54.6828H44.4128V58.2677H40.8147ZM51.5826 51.0847V47.4998H55.1674V43.9149H58.7523V51.0979H55.1674H51.5826V51.0847Z" fill="black"/>
<path d="M33.6357 36.7319H30.0508V40.3168H33.6357V36.7319Z" fill="black"/>
<path d="M37.2196 43.915H33.6348V47.4999H37.2196V43.915Z" fill="black"/>
<path d="M33.6357 58.2681H30.0508V61.8529H33.6357V58.2681Z" fill="black"/>
<path d="M26.449 36.7324H30.0472V33.1343H26.449H22.8642H19.2793V36.7324H22.8642H26.449Z" fill="black"/>
<path d="M15.6845 33.1343H12.0996V36.7192H15.6845V33.1343Z" fill="black"/>
<path d="M62.3505 61.8657H58.7656V65.4506H62.3505V61.8657Z" fill="black"/>
<path d="M58.7673 69.0493V65.4512H55.1824V69.0493H51.5843H47.9994H44.4146H40.8164V72.6342H44.4146H47.9994V76.2191H44.4146H40.8164V79.8172H44.4146H47.9994H51.5843V83.4021V87.0002H55.1824V83.4021V83.0834H58.7673V79.4986H55.1824V72.6342H58.7673H62.3655V69.0493H58.7673Z" fill="black"/>
<path d="M55.1836 29.5493V33.1342H58.7685V36.7323H62.3666H65.9515V40.3172H69.5496V36.7323V33.1342H65.9515H62.3666V29.5493H58.7685V25.9512H55.1836V29.5493Z" fill="black"/>
<path d="M37.2196 25.9512H33.6348V29.536H37.2196V25.9512Z" fill="black"/>
<path d="M40.8178 18.7812V15.183H44.4159V11.5981V8H40.8178V11.5981H37.2329V15.183V18.7812H33.6348V22.366H37.2329V25.9509H40.8178V22.366H44.4159V18.7812H40.8178Z" fill="black"/>
<path d="M37.2196 8H33.6348V11.5849H37.2196V8Z" fill="black"/>
<path d="M76.7196 76.2191H73.1348V79.8173V83.4022H76.7196V79.8173H80.3178V76.2191V72.6343H76.7196V76.2191Z" fill="black"/>
</svg>
